<svg width="33" height="33" viewBox="0 0 33 33" fill="none" xmlns="http://www.w3.org/2000/svg">
<path d="M16.5 28.875C19.363 28.875 22.1375 27.8823 24.3506 26.066C26.5638 24.2497 28.0787 21.7223 28.6372 18.9142C29.1958 16.1062 28.7634 13.1914 27.4138 10.6665C26.0642 8.14151 23.8808 6.16262 21.2357 5.06699C18.5906 3.97136 15.6475 3.82677 12.9077 4.65786C10.168 5.48895 7.80118 7.2443 6.21057 9.62482C4.61996 12.0053 3.90396 14.8637 4.18459 17.713C4.46521 20.5622 5.72509 23.226 7.74955 25.2504" stroke="black" stroke-linecap="round"/>
<path d="M12.375 12.375L20.625 20.625" stroke="black" stroke-linecap="round"/>
<path d="M20.625 12.375L12.375 20.625" stroke="black" stroke-linecap="round"/>
</svg>
