<?xml version="1.0" encoding="utf-8"?>
<!-- Generator: Adobe Illustrator 21.1.0, SVG Export Plug-In . SVG Version: 6.00 Build 0)  -->
<svg version="1.1" id="分離模式" xmlns="http://www.w3.org/2000/svg" xmlns:xlink="http://www.w3.org/1999/xlink" x="0px"
	 y="0px" viewBox="0 0 74 72" style="enable-background:new 0 0 74 72;" xml:space="preserve">
<style type="text/css">
	.st0{fill:#248D3A;}
	.st1{fill:#1D68A2;}
</style>
<g>
	<polygon class="st0" points="0.4,63.6 0.4,52 72,52 72,58.7 71.5,58.9 70.8,59.2 70,59.5 69.3,59.9 67.5,60.7 65.5,61.5
		63.5,62.4 61.4,63 60.4,63.3 60,63.4 59.7,63.4 59.5,63.5 58.8,63.5 58.1,63.5 57.2,63.5 56.8,63.4 56.5,63.4 56.2,63.3
		55.7,63.1 55,62.8 53.2,62 51.5,61 49.8,60.1 49,59.6 48,59.3 47.2,59 46.3,58.7 45.9,58.6 45,58.5 44.1,58.4 43.2,58.5
		42.4,58.7 41.9,58.7 41,59 40.2,59.3 39.3,59.7 38.4,60.2 36.7,61.2 34.9,62.1 34.1,62.6 33.2,62.9 32.3,63.3 31.8,63.5
		31.5,63.6 31,63.7 30.2,63.7 29.3,63.7 28.7,63.6 28.4,63.5 28,63.4 27.2,63 26.3,62.6 25.4,62.2 23.7,61.2 21.9,60.3 21,59.9
		20.1,59.5 19.2,59.2 18.2,59 17.7,58.9 16.8,58.7 15.9,58.7 14.9,58.7 13.8,58.9 13.3,59 12.2,59.3 11,59.5 8.5,60.3 6.1,61.2
		3.8,62.2 2.7,62.6 1.6,63.1 0.7,63.4 		"/>
	<path class="st1" d="M15.5,43.3l1.8,3.1c-1.6,1.7-3.9,2.5-7,2.5c-3,0-5.4-1-7.1-3c-1.7-2-2.6-4.8-2.6-8.2c0-3.2,1-6,2.8-8.1
		c1.9-2.2,4.3-3.2,7.2-3.2c2.5,0,4.5,0.4,6,1.5l-1.6,3.2c-0.9-0.9-2.3-1.3-4.1-1.3c-1.8,0-3.3,0.7-4.4,2.3
		c-1.2,1.5-1.8,3.5-1.8,5.8c0,2.3,0.6,4.2,1.6,5.5c1,1.4,2.5,2.1,4.3,2.1C12.7,45.5,14.3,44.8,15.5,43.3z M19.9,48.6h13.7v-3.4
		h-9.9v-6.5H31v-3.3h-7.2v-5.1h10.1v-3.4H19.9V48.6z M50.2,29.4c1.9,1.8,2.8,4.3,2.8,7.4c0,6.7-2.7,10.5-8.2,11.5
		c-1,0.2-2,0.2-3.2,0.2h-4.8V26.8c3-0.1,5-0.1,5.8-0.1c0.8,0,1.5,0.1,2.2,0.1C47,27.1,48.8,28,50.2,29.4z M49,37
		c0-3.7-1.4-5.9-4.1-6.7c-0.7-0.2-1.5-0.2-2.4-0.2c-0.4,0-1,0-1.8,0.1V45c0.6,0.1,1.3,0.1,2,0.1c0.8,0,1.5-0.1,2.1-0.4
		c1-0.3,1.8-0.9,2.5-1.8C48.4,41.6,49,39.6,49,37z M72.1,36.8c0,6.7-2.7,10.5-8.2,11.5c-1,0.2-2.1,0.2-3.2,0.2h-4.9V26.8
		c3.1-0.1,5.1-0.1,5.9-0.1c0.7,0,1.5,0.1,2.2,0.1c2.1,0.3,4,1.2,5.4,2.6C71.1,31.2,72.1,33.7,72.1,36.8z M68.1,37
		c0-3.7-1.4-5.9-4.1-6.7c-0.7-0.2-1.5-0.2-2.4-0.2c-0.4,0-1,0-1.8,0.1V45c0.6,0.1,1.3,0.1,2,0.1c0.8,0,1.5-0.1,2.1-0.4
		c1-0.3,1.8-0.9,2.4-1.8C67.5,41.6,68.1,39.6,68.1,37z"/>
	<path class="st1" d="M71,3.8l-2.3-0.4l0,0l-2.6-0.5l-2.4-0.3l-2.4-0.1L59,2.5l-2.4,0.2L54.4,3l0.1,0l-0.2,0.1l0,0h0L52,3.6
		l-2.6,0.7L44.3,6l-2.3,0.9l0.7-0.2l0.5-0.1l2.4-0.4L47.9,6h2.4l2.4,0.1l2.5,0.3l2.5,0.4L58.1,7l2.6,0.5l2.6,0.5l2.5,0.7l2.6,0.7
		l2.5,0.8l1.2,0.4v2.6l-2.1-0.7l-2.6-0.7l-2.5-0.8l-2.6-0.7l-2.6-0.6l-2.6-0.5h0.1l-2.1-0.3l-2.5-0.3l-2.4-0.1H48l-2.4,0.2
		l-2.1,0.3h-0.2l-2.2,0.5l-2.6,0.7L36,11.1L33.4,12l-0.7,0.3l1.4-0.1h2.4l2.6,0.1h0.3l2.6,0.4l2.6,0.5l2.7,0.6l2.6,0.6l2.7,0.8
		l2.6,0.7l2.6,0.9l0.4,0.1l2.6,0.8l2.4,0.9l2.4,0.8l2.1,0.7l1.8,0.5l0.1,0.1h0.1l1.6,0.4l0.8,0.2l0.1,3.5l-1.5-0.4L68.6,24
		l-0.4-0.1l-2-0.7l-2.1-0.7l-2.4-0.8l-2.4-0.9l-2.3-0.7H57l-2.4-0.8l-2.6-0.7l-2.7-0.8l-5.4-1.2l-2.7-0.5L39,15.8h-0.1l-2.3-0.2
		h-2.3l-2.2,0.2H32l-2.3,0.4l-2.5,0.6l-2.6,0.7l-2.4,0.8h-0.1L19.7,19l-2.6,1l-2.5,1l-2.4,1.1l-2.4,1l-2.2,1l-2.1,1l-1.9,0.9
		l-1.7,0.8L1.1,27l-0.7,0.3c-0.1-0.1,0,0,0-3.6l0.2-0.1l1.7-0.8L4.2,22l2-1l2.3-1l2.4-1.1l2-0.9l0.1,0l0.8-0.4l0.7-0.2l1.7-0.8
		l2-0.9l2.1-1l2.2-1l2.4-1l1.5-0.6l1.1-0.5l1.9-0.9l2.1-0.9l2.3-1L36,7.7l5-2.1l2.6-1l2.6-0.9L48.8,3l2.6-0.7l2.5-0.5l0.3-0.1
		l2.4-0.4L59,1l2.3-0.1l2.4,0.1l2.4,0.3l2.6,0.5L69,1.9l2.6,0.5L72,2.5V4L71,3.8z M54.2,3.1h0.1l0.1,0L54.2,3.1L54.2,3.1z"/>
	<path class="st1" d="M59.9,65.4l0.5-0.1l0.9-0.2l1-0.3l2-0.7l2-0.8l2-0.9l1.8-0.8l0.8-0.4l0.8-0.4l0.2-0.1v-2.6l-0.5,0.1l-0.7,0.3
		L70,59l-0.8,0.4l-1.8,0.9l-2,0.8l-2,0.9l-2.1,0.6l-1,0.3L60,62.9l-0.2,0.1L59.5,63l-0.7,0.1h-0.7L57.2,63l-0.4-0.1l-0.3-0.1
		l-0.3-0.1l-0.5-0.2L55,62.3l-1.8-0.9l-1.7-0.9l-1.8-1L49,59.2L48,58.9l-0.9-0.4l-0.9-0.2l-0.4-0.1L45,58l-0.9-0.1L43.2,58
		l-0.9,0.2l-0.5,0.1L41,58.6l-0.9,0.3l-0.9,0.4l-0.9,0.5l-1.7,1l-1.8,1l-0.9,0.4l-0.9,0.4l-0.9,0.4L31.8,63l-0.1,0.1l-0.1,0.1
		L31,63.2l-0.9,0.1l-0.9-0.1l-0.6-0.1l-0.1-0.1h-0.2L28,62.9l-0.8-0.4l-0.9-0.4l-0.9-0.4l-1.7-1L21,59.4L20.1,59l-0.9-0.3l-1-0.2
		l-0.5-0.1l-0.9-0.1l-0.9-0.1l-1,0.1l-1.1,0.2l-0.5,0.1l-1.1,0.2L11,59l-2.5,0.8l-2.4,0.9l-2.3,1l-1.1,0.4l-1,0.4l-0.9,0.4
		l-0.4,0.2v2.7l0.5-0.2l0.8-0.4l1-0.4l1-0.5L4.7,64l2.4-1l2.4-0.9l2.5-0.8l1.2-0.3l0.9-0.2h0.1l0.8-0.2h2l0.6,0.1h0.1l0.1,0.1
		l0.6,0.1l1,0.4l0.9,0.4l0.9,0.4l0.5,0.3l-0.5,0h-1.2l-1.2,0.1l-1.2,0.2l-0.2,0.1L16,63.2l-1.4,0.4l-1.3,0.5l-1.4,0.5l-2.7,1.2
		L6.4,67l-1.3,0.5l-1.2,0.5l-1.2,0.5L1.6,69l-0.5,0.2l-0.4,0.1H0.7l-0.1,0.1H0.4l-0.1,0.1v1.3l0.8-0.2l1-0.4l1-0.4l1.2-0.5l1.2-0.5
		l1.3-0.6l2.7-1.2l2.8-1.2l1.4-0.5l1.3-0.5l1.3-0.4l0.5-0.1l0.6-0.2h0.2l1-0.2l1.2-0.1l1.1-0.1l1,0.1l0.6,0.1
		c0.1,0.1,0.2,0.1,0.3,0.1l0.3,0.1l0.6,0.1l1,0.4l1,0.4l0.2,0.1l-0.4-0.1l-0.9-0.1H24l-1,0.2l-0.2,0.1l-0.9,0.2l-1,0.3l-2.1,0.6
		L16.6,67l-1.9,0.8l-0.9,0.4l-0.9,0.4L12.2,69l-0.7,0.2l-0.6,0.2l-0.5,0.2l0.4,1.2l0.5-0.2l0.6-0.2l0.7-0.3l0.7-0.4l0.9-0.4
		l0.9-0.4l1.9-0.9l2.1-0.8l2-0.7l1.1-0.3l0.5-0.1l0.3-0.1h0.2l0.3-0.1l0.4-0.1h0.9l0.4,0.1h0.5l0.3,0.1l0.3,0.1l0.1,0.1h0.1
		l0.7,0.2l0.9,0.3l1.8,0.8l1.8,1l1.8,0.9l0.9,0.4l0.9,0.4l0.9,0.3l0.9,0.2h0.2l0.9,0.2l0.9,0.1l0.9-0.1l0.9-0.1l0.2-0.1l0.9-0.2
		l0.9-0.4l0.9-0.4l0.8-0.4l1.8-0.9l1.7-1L49,67l0.9-0.4l0.4-0.1l0.5-0.2l0.2-0.1l0.3-0.1l0.1-0.1h0.2l0.2-0.1l0.4-0.1l0.9-0.1h0.7
		l0.2,0.1h0.3l0.3,0.1l0.1,0.1h0.1l0.6,0.2l0.9,0.4l0.9,0.4l0.9,0.4l1.7,0.9l1.8,0.9l0.9,0.4l0.8,0.4l0.9,0.4l0.9,0.2l0.2,0.1
		l0.9,0.1l0.9,0.1l0.9-0.1l1-0.1l1-0.2l0.2-0.1l1-0.3l0.9-0.3v-1.3l-1.3,0.5l-0.5,0.1l-0.4,0.1l-0.3,0.1l-0.5,0.1l-1,0.1L67,69.6
		l-0.9-0.1l-0.3-0.1l-0.3-0.1h-0.1l-0.2-0.1l-0.2-0.1l-0.4-0.1l-0.9-0.3l-0.9-0.4L62,68.1l-0.3-0.2l0.9,0.2l0.9,0.1l0.9-0.1l1-0.1
		l1-0.2l0.2-0.1l1-0.3l2-0.6l2.1-0.8l0.4-0.2v-1.3L71.1,65l-2,0.8l-2,0.6l-0.9,0.2h-0.1l-0.1,0.1l-0.8,0.1l-1,0.1L63.4,67l-0.9-0.1
		l-0.2-0.1h-0.2l-0.3-0.1l-0.2-0.1l-0.2-0.1L61,66.5l-0.9-0.4l-1.3-0.6l0.1,0L59.9,65.4z M31.9,65.5l0.5-0.1l0.8-0.2l0.9-0.4
		l0.9-0.4l0.9-0.4l1.8-1l1.6-0.9l0.9-0.5l0.9-0.4l0.7-0.2l0.5-0.2l0.4-0.1l0.3-0.1l0.3-0.1l0.9-0.1l0.9,0.1l0.4,0.1l0.2,0.1h0.2
		l0.4,0.1l0.9,0.4l0.9,0.4l0.8,0.4l-0.2,0l-0.9,0.2l-0.2,0.1l-0.9,0.2l-0.9,0.3l-0.9,0.4l-0.9,0.5l-1.7,0.9l-1.7,1l-1.8,0.9
		L38,66.7l-0.6,0.2h-0.1l-0.1,0.1L36.5,67l-0.9,0.1l-0.5-0.1h-0.5L34.5,67h-0.2L34,67l-0.1-0.1h-0.2l-0.2-0.1L33,66.7l-0.9-0.4
		l-1-0.4l-0.7-0.3l0.6,0L31.9,65.5z M53,64.6l-0.9,0.1l-0.9,0.1L51,64.8L50.7,65l-0.4,0.2l-0.4,0.1l-0.2,0.1l-0.1,0.1h-0.1
		l-0.1,0.1l-0.1,0.1h-0.1l-0.2,0.1l-0.4,0.2l-0.9,0.4l-1.7,1l-1.8,0.9l-0.9,0.4L42.4,69l-0.9,0.3l-0.3,0.1l-0.3,0.1l-0.1,0.1h-0.1
		l-0.3,0.1L40,69.7l-0.9,0.1l-0.9-0.1l-0.6-0.1h-0.1l-0.1-0.1h-0.1l-0.2-0.1H37l-0.1-0.1l-0.2-0.1l-0.4-0.1l-0.4-0.1l-0.9-0.4
		L34,68.3l-0.5-0.2l0.2,0l0.9,0.2l1,0.1l0.9-0.1l0.9-0.2l0.2-0.1l0.9-0.2l0.9-0.3l1.8-0.9l1.7-0.9l1.7-1l0.9-0.5l0.8-0.3l0.9-0.4
		l0.6-0.2h0.1l0.1-0.1l0.3-0.1l0.4-0.1H49l0.4-0.1h0.9l0.7,0.1l0.1,0.1l0.5,0.1l0.8,0.4l1.8,0.8l0.1,0.1L54,64.6H53z"/>
</g>
</svg>
