<svg width="110" height="31" viewBox="0 0 110 31" fill="none" xmlns="http://www.w3.org/2000/svg">
<path d="M6.64844 25H18.2305V30H0.59375V1.44531H6.64844V25ZM25.457 26.582C23.1133 24.043 21.9414 20.3971 21.9414 15.6445C21.9414 10.8919 23.1133 7.26562 25.457 4.76562C27.8138 2.2526 31.1797 0.996094 35.5547 0.996094C39.9427 0.996094 43.3021 2.25911 45.6328 4.78516C47.9635 7.3112 49.1289 10.944 49.1289 15.6836C49.1289 20.4102 47.957 24.043 45.6133 26.582C43.2695 29.1211 39.9102 30.3906 35.5352 30.3906C31.1602 30.3906 27.8008 29.1211 25.457 26.582ZM35.5742 6.03516C33.1654 6.03516 31.349 6.84896 30.125 8.47656C28.901 10.0911 28.2891 12.4935 28.2891 15.6836C28.2891 22.1029 30.7044 25.3125 35.5352 25.3125C40.3659 25.3125 42.7812 22.1029 42.7812 15.6836C42.7812 9.2513 40.3789 6.03516 35.5742 6.03516ZM77.2148 13.9648V28.7695C73.8815 29.8503 70.4961 30.3906 67.0586 30.3906C62.7617 30.3906 59.4674 29.1276 57.1758 26.6016C54.9102 24.0625 53.7773 20.4557 53.7773 15.7812C53.7773 11.1068 55.0924 7.48047 57.7227 4.90234C60.3659 2.32422 64.0247 1.03516 68.6992 1.03516C71.6289 1.03516 74.4544 1.62109 77.1758 2.79297L75.1641 7.63672C73.0547 6.59505 70.8867 6.07422 68.6602 6.07422C66.043 6.07422 63.9466 6.95964 62.3711 8.73047C60.7956 10.4883 60.0078 12.8841 60.0078 15.918C60.0078 18.9388 60.6393 21.2695 61.9023 22.9102C63.1784 24.5378 65.0273 25.3516 67.4492 25.3516C68.6732 25.3516 69.9557 25.2214 71.2969 24.9609V19.0039H65.8867V13.9648H77.2148ZM86.2773 26.582C83.9336 24.043 82.7617 20.3971 82.7617 15.6445C82.7617 10.8919 83.9336 7.26562 86.2773 4.76562C88.6341 2.2526 92 0.996094 96.375 0.996094C100.763 0.996094 104.122 2.25911 106.453 4.78516C108.784 7.3112 109.949 10.944 109.949 15.6836C109.949 20.4102 108.777 24.043 106.434 26.582C104.09 29.1211 100.73 30.3906 96.3555 30.3906C91.9805 30.3906 88.6211 29.1211 86.2773 26.582ZM96.3945 6.03516C93.9857 6.03516 92.1693 6.84896 90.9453 8.47656C89.7214 10.0911 89.1094 12.4935 89.1094 15.6836C89.1094 22.1029 91.5247 25.3125 96.3555 25.3125C101.186 25.3125 103.602 22.1029 103.602 15.6836C103.602 9.2513 101.199 6.03516 96.3945 6.03516Z" fill="white"/>
</svg>
